<svg id="visual" viewBox="0 0 1900 250" width="1900" height="250" xmlns="http://www.w3.org/2000/svg" xmlns:xlink="http://www.w3.org/1999/xlink" version="1.1"><rect x="0" y="0" width="1900" height="250" fill="#090F1E"></rect><path d="M0 75L28.8 74.5C57.7 74 115.3 73 172.8 71C230.3 69 287.7 66 345.2 68.2C402.7 70.3 460.3 77.7 518 84C575.7 90.3 633.3 95.7 691 90C748.7 84.3 806.3 67.7 863.8 66.7C921.3 65.7 978.7 80.3 1036.2 89.2C1093.7 98 1151.3 101 1209 102.5C1266.7 104 1324.3 104 1382 95.7C1439.7 87.3 1497.3 70.7 1554.8 64.2C1612.3 57.7 1669.7 61.3 1727.2 69.2C1784.7 77 1842.3 89 1871.2 95L1900 101L1900 0L1871.2 0C1842.3 0 1784.7 0 1727.2 0C1669.7 0 1612.3 0 1554.8 0C1497.3 0 1439.7 0 1382 0C1324.3 0 1266.7 0 1209 0C1151.3 0 1093.7 0 1036.2 0C978.7 0 921.3 0 863.8 0C806.3 0 748.7 0 691 0C633.3 0 575.7 0 518 0C460.3 0 402.7 0 345.2 0C287.7 0 230.3 0 172.8 0C115.3 0 57.7 0 28.8 0L0 0Z" fill="#1d3059"></path><path d="M0 77L28.8 72.5C57.7 68 115.3 59 172.8 54.3C230.3 49.7 287.7 49.3 345.2 49.8C402.7 50.3 460.3 51.7 518 51.8C575.7 52 633.3 51 691 48.7C748.7 46.3 806.3 42.7 863.8 40.5C921.3 38.3 978.7 37.7 1036.2 41.2C1093.7 44.7 1151.3 52.3 1209 52.2C1266.7 52 1324.3 44 1382 40.7C1439.7 37.3 1497.3 38.7 1554.8 39C1612.3 39.3 1669.7 38.7 1727.2 40.7C1784.7 42.7 1842.3 47.3 1871.2 49.7L1900 52L1900 0L1871.2 0C1842.3 0 1784.7 0 1727.2 0C1669.7 0 1612.3 0 1554.8 0C1497.3 0 1439.7 0 1382 0C1324.3 0 1266.7 0 1209 0C1151.3 0 1093.7 0 1036.2 0C978.7 0 921.3 0 863.8 0C806.3 0 748.7 0 691 0C633.3 0 575.7 0 518 0C460.3 0 402.7 0 345.2 0C287.7 0 230.3 0 172.8 0C115.3 0 57.7 0 28.8 0L0 0Z" fill="#18284c"></path><path d="M0 47L28.8 42.2C57.7 37.3 115.3 27.7 172.8 23.8C230.3 20 287.7 22 345.2 25C402.7 28 460.3 32 518 34.2C575.7 36.3 633.3 36.7 691 35.3C748.7 34 806.3 31 863.8 31.7C921.3 32.3 978.7 36.7 1036.2 36.8C1093.7 37 1151.3 33 1209 30.2C1266.7 27.3 1324.3 25.7 1382 28.2C1439.7 30.7 1497.3 37.3 1554.8 39.7C1612.3 42 1669.7 40 1727.2 40.3C1784.7 40.7 1842.3 43.3 1871.2 44.7L1900 46L1900 0L1871.2 0C1842.3 0 1784.7 0 1727.2 0C1669.7 0 1612.3 0 1554.8 0C1497.3 0 1439.7 0 1382 0C1324.3 0 1266.7 0 1209 0C1151.3 0 1093.7 0 1036.2 0C978.7 0 921.3 0 863.8 0C806.3 0 748.7 0 691 0C633.3 0 575.7 0 518 0C460.3 0 402.7 0 345.2 0C287.7 0 230.3 0 172.8 0C115.3 0 57.7 0 28.8 0L0 0Z" fill="#13213f"></path></svg>