<svg id="visual" viewBox="0 0 1920 400" width="1920" height="400" xmlns="http://www.w3.org/2000/svg" xmlns:xlink="http://www.w3.org/1999/xlink" version="1.1"><path d="M0 45L64 51C128 57 256 69 384 89C512 109 640 137 768 161.7C896 186.3 1024 207.7 1152 201.7C1280 195.7 1408 162.3 1536 156.3C1664 150.3 1792 171.7 1856 182.3L1920 193L1920 0L1856 0C1792 0 1664 0 1536 0C1408 0 1280 0 1152 0C1024 0 896 0 768 0C640 0 512 0 384 0C256 0 128 0 64 0L0 0Z" fill="#090f1e"></path><path d="M0 237L64 241.7C128 246.3 256 255.7 384 257C512 258.3 640 251.7 768 254.3C896 257 1024 269 1152 257C1280 245 1408 209 1536 202.3C1664 195.7 1792 218.3 1856 229.7L1920 241L1920 191L1856 180.3C1792 169.7 1664 148.3 1536 154.3C1408 160.3 1280 193.7 1152 199.7C1024 205.7 896 184.3 768 159.7C640 135 512 107 384 87C256 67 128 55 64 49L0 43Z" fill="#0a1122"></path><path d="M0 249L64 255.7C128 262.3 256 275.7 384 287.7C512 299.7 640 310.3 768 320.3C896 330.3 1024 339.7 1152 324.3C1280 309 1408 269 1536 261.7C1664 254.3 1792 279.7 1856 292.3L1920 305L1920 239L1856 227.7C1792 216.3 1664 193.7 1536 200.3C1408 207 1280 243 1152 255C1024 267 896 255 768 252.3C640 249.7 512 256.3 384 255C256 253.7 128 244.3 64 239.7L0 235Z" fill="#0b1327"></path><path d="M0 333L64 340.3C128 347.7 256 362.3 384 363C512 363.7 640 350.3 768 351.7C896 353 1024 369 1152 370.3C1280 371.7 1408 358.3 1536 357.7C1664 357 1792 369 1856 375L1920 381L1920 303L1856 290.3C1792 277.7 1664 252.3 1536 259.7C1408 267 1280 307 1152 322.3C1024 337.7 896 328.3 768 318.3C640 308.3 512 297.7 384 285.7C256 273.7 128 260.3 64 253.7L0 247Z" fill="#13213f"></path><path d="M0 401L64 401C128 401 256 401 384 401C512 401 640 401 768 401C896 401 1024 401 1152 401C1280 401 1408 401 1536 401C1664 401 1792 401 1856 401L1920 401L1920 379L1856 373C1792 367 1664 355 1536 355.7C1408 356.3 1280 369.7 1152 368.3C1024 367 896 351 768 349.7C640 348.3 512 361.7 384 361C256 360.3 128 345.7 64 338.3L0 331Z" fill="#1d3059"></path></svg>