<svg id="visual" viewBox="0 0 1920 620" width="1920" height="620" xmlns="http://www.w3.org/2000/svg" xmlns:xlink="http://www.w3.org/1999/xlink" version="1.1"><rect width="1920" height="620" fill="#090F1E"></rect><g><g transform="translate(1906 159)"><path d="M0 -270.3L158.9 -218.7L257 -83.5L257 83.5L158.9 218.7L0 270.3L-158.9 218.7L-257 83.5L-257 -83.5L-158.9 -218.7Z" fill="none" stroke="#1D3059" stroke-width="1"></path></g><g transform="translate(146 466)"><path d="M0 -69L40.6 -55.8L65.6 -21.3L65.6 21.3L40.6 55.8L0 69L-40.6 55.8L-65.6 21.3L-65.6 -21.3L-40.6 -55.8Z" fill="none" stroke="#1D3059" stroke-width="1"></path></g><g transform="translate(1259 16)"><path d="M0 -209L122.8 -169.1L198.8 -64.6L198.8 64.6L122.8 169.1L0 209L-122.8 169.1L-198.8 64.6L-198.8 -64.6L-122.8 -169.1Z" fill="none" stroke="#1D3059" stroke-width="1"></path></g><g transform="translate(1029 544)"><path d="M0 -269L158.1 -217.6L255.8 -83.1L255.8 83.1L158.1 217.6L0 269L-158.1 217.6L-255.8 83.1L-255.8 -83.1L-158.1 -217.6Z" fill="none" stroke="#1D3059" stroke-width="1"></path></g></g></svg>