<svg id="visual" viewBox="0 0 1920 250" width="1920" height="250" xmlns="http://www.w3.org/2000/svg" xmlns:xlink="http://www.w3.org/1999/xlink" version="1.1"><path d="M0 14L53.3 14C106.7 14 213.3 14 320 14C426.7 14 533.3 14 640 14.8C746.7 15.7 853.3 17.3 960 20.2C1066.7 23 1173.3 27 1280 30.3C1386.7 33.7 1493.3 36.3 1600 36.3C1706.7 36.3 1813.3 33.7 1866.7 32.3L1920 31L1920 0L1866.7 0C1813.3 0 1706.7 0 1600 0C1493.3 0 1386.7 0 1280 0C1173.3 0 1066.7 0 960 0C853.3 0 746.7 0 640 0C533.3 0 426.7 0 320 0C213.3 0 106.7 0 53.3 0L0 0Z" fill="#060c18"></path><path d="M0 44L53.3 44C106.7 44 213.3 44 320 41C426.7 38 533.3 32 640 31.2C746.7 30.3 853.3 34.7 960 39.3C1066.7 44 1173.3 49 1280 51.8C1386.7 54.7 1493.3 55.3 1600 55.3C1706.7 55.3 1813.3 54.7 1866.7 54.3L1920 54L1920 29L1866.7 30.3C1813.3 31.7 1706.7 34.3 1600 34.3C1493.3 34.3 1386.7 31.7 1280 28.3C1173.3 25 1066.7 21 960 18.2C853.3 15.3 746.7 13.7 640 12.8C533.3 12 426.7 12 320 12C213.3 12 106.7 12 53.3 12L0 12Z" fill="#070d1a"></path><path d="M0 99L53.3 99.3C106.7 99.7 213.3 100.3 320 98.7C426.7 97 533.3 93 640 88.5C746.7 84 853.3 79 960 82.7C1066.7 86.3 1173.3 98.7 1280 102.8C1386.7 107 1493.3 103 1600 96.3C1706.7 89.7 1813.3 80.3 1866.7 75.7L1920 71L1920 52L1866.7 52.3C1813.3 52.7 1706.7 53.3 1600 53.3C1493.3 53.3 1386.7 52.7 1280 49.8C1173.3 47 1066.7 42 960 37.3C853.3 32.7 746.7 28.3 640 29.2C533.3 30 426.7 36 320 39C213.3 42 106.7 42 53.3 42L0 42Z" fill="#080e1c"></path><path d="M0 124L53.3 135.7C106.7 147.3 213.3 170.7 320 177.7C426.7 184.7 533.3 175.3 640 160.3C746.7 145.3 853.3 124.7 960 125.2C1066.7 125.7 1173.3 147.3 1280 159.3C1386.7 171.3 1493.3 173.7 1600 166.5C1706.7 159.3 1813.3 142.7 1866.7 134.3L1920 126L1920 69L1866.7 73.7C1813.3 78.3 1706.7 87.7 1600 94.3C1493.3 101 1386.7 105 1280 100.8C1173.3 96.7 1066.7 84.3 960 80.7C853.3 77 746.7 82 640 86.5C533.3 91 426.7 95 320 96.7C213.3 98.3 106.7 97.7 53.3 97.3L0 97Z" fill="#090f1e"></path><path d="M0 196L53.3 201.5C106.7 207 213.3 218 320 219.7C426.7 221.3 533.3 213.7 640 207C746.7 200.3 853.3 194.7 960 198C1066.7 201.3 1173.3 213.7 1280 219.5C1386.7 225.3 1493.3 224.7 1600 219.3C1706.7 214 1813.3 204 1866.7 199L1920 194L1920 124L1866.7 132.3C1813.3 140.7 1706.7 157.3 1600 164.5C1493.3 171.7 1386.7 169.3 1280 157.3C1173.3 145.3 1066.7 123.7 960 123.2C853.3 122.7 746.7 143.3 640 158.3C533.3 173.3 426.7 182.7 320 175.7C213.3 168.7 106.7 145.3 53.3 133.7L0 122Z" fill="#0f192e"></path><path d="M0 239L53.3 239.8C106.7 240.7 213.3 242.3 320 241.5C426.7 240.7 533.3 237.3 640 235.2C746.7 233 853.3 232 960 233.7C1066.7 235.3 1173.3 239.7 1280 241.8C1386.7 244 1493.3 244 1600 242.3C1706.7 240.7 1813.3 237.3 1866.7 235.7L1920 234L1920 192L1866.7 197C1813.3 202 1706.7 212 1600 217.3C1493.3 222.7 1386.7 223.3 1280 217.5C1173.3 211.7 1066.7 199.3 960 196C853.3 192.7 746.7 198.3 640 205C533.3 211.7 426.7 219.3 320 217.7C213.3 216 106.7 205 53.3 199.5L0 194Z" fill="#14233f"></path><path d="M0 251L53.3 251C106.7 251 213.3 251 320 251C426.7 251 533.3 251 640 251C746.7 251 853.3 251 960 251C1066.7 251 1173.3 251 1280 251C1386.7 251 1493.3 251 1600 251C1706.7 251 1813.3 251 1866.7 251L1920 251L1920 232L1866.7 233.7C1813.3 235.3 1706.7 238.7 1600 240.3C1493.3 242 1386.7 242 1280 239.8C1173.3 237.7 1066.7 233.3 960 231.7C853.3 230 746.7 231 640 233.2C533.3 235.3 426.7 238.7 320 239.5C213.3 240.3 106.7 238.7 53.3 237.8L0 237Z" fill="#192c51"></path></svg>