<svg id="visual" viewBox="0 0 1550 490" width="1550" height="490" xmlns="http://www.w3.org/2000/svg" xmlns:xlink="http://www.w3.org/1999/xlink" version="1.1"><rect x="0" y="0" width="1550" height="490" fill="#001220"></rect><defs><linearGradient id="grad1_0" x1="68.4%" y1="100%" x2="100%" y2="0%"><stop offset="-13.265306122448987%" stop-color="#001220" stop-opacity="1"></stop><stop offset="113.26530612244898%" stop-color="#001220" stop-opacity="1"></stop></linearGradient></defs><defs><linearGradient id="grad2_0" x1="0%" y1="100%" x2="31.6%" y2="0%"><stop offset="-13.265306122448987%" stop-color="#001220" stop-opacity="1"></stop><stop offset="113.26530612244898%" stop-color="#001220" stop-opacity="1"></stop></linearGradient></defs><g transform="translate(1550, 490)"><path d="M-220.5 0C-221.2 -32.6 -221.8 -65.1 -203.7 -84.4C-185.6 -103.6 -148.7 -109.5 -126.6 -126.6C-104.4 -143.6 -97.1 -171.9 -78.5 -189.4C-59.8 -206.9 -29.9 -213.7 0 -220.5L0 0Z" fill="#1D3059"></path></g><g transform="translate(0, 0)"><path d="M220.5 0C213.7 27 206.9 53.9 197.7 81.9C188.5 109.9 176.8 138.9 155.9 155.9C135 172.9 104.8 177.9 77.3 186.6C49.8 195.4 24.9 207.9 0 220.5L0 0Z" fill="#1D3059"></path></g></svg>